# xmcd CD database file
#
# Track frame offsets:
#	150
#	18836
#	33966
#	50347
#	63086
#	84520
#	101832
#	119417
#	133506
#	157422
#
# Disc length: 2303 seconds
#
# Revision: 0
# Processed by: cddbd v1.5.1PL0 Copyright (c) Steve Scherf et al.
# Submitted via: CDex 1.50
#
DISCID=7e08fd0a
DTITLE=Calawahake - Secrets
DYEAR=2004
DGENRE=New Age
TTITLE0=A Walk in the Garden
TTITLE1=Falling
TTITLE2=Gentle is the Breeze That Blows Me To You
TTITLE3=Jasmine Flowers in Spring
TTITLE4=Kumari's Song
TTITLE5=Night on a Full Moon
TTITLE6=Nightfall in Sedona
TTITLE7=Stormwalker
TTITLE8=Trance Medicine
TTITLE9=Unless
EXTD=YEAR: 2004
EXTT0=
EXTT1=
EXTT2=
EXTT3=
EXTT4=
EXTT5=
EXTT6=
EXTT7=
EXTT8=
EXTT9=
PLAYORDER=
